<mxfile host="app.diagrams.net" agent="Mozilla/5.0 (Macintosh; Intel Mac OS X 10_15_7) AppleWebKit/605.1.15 (KHTML, like Gecko) Version/17.2.1 Safari/605.1.15" version="24.7.10">
  <diagram name="페이지-1" id="n3FaygGf_qBq6oKuwklL">
    <mxGraphModel dx="1229" dy="1183" grid="1" gridSize="10" guides="1" tooltips="1" connect="1" arrows="1" fold="1" page="1" pageScale="1" pageWidth="827" pageHeight="1169" math="0" shadow="0">
      <root>
        <mxCell id="0" />
        <mxCell id="1" parent="0" />
        <mxCell id="GIXLO-u4NTBJi5lBHRE4-1" value="Design Instagram&amp;nbsp;&lt;div&gt;&lt;br&gt;&lt;/div&gt;&lt;div&gt;Requirement&lt;/div&gt;&lt;div&gt;- upload images from a mobile client&lt;/div&gt;&lt;div&gt;- users follow other users&lt;/div&gt;&lt;div&gt;- generate a feed of images&lt;/div&gt;&lt;div&gt;- scale : 10 million users (10⌃7)&lt;/div&gt;&lt;div&gt;&lt;br&gt;&lt;/div&gt;&lt;div&gt;Questions&lt;/div&gt;&lt;div&gt;- what is mobile client?&lt;/div&gt;&lt;div&gt;- is it app or web?&lt;/div&gt;&lt;div&gt;- do we need to support other platforms?&lt;/div&gt;&lt;div&gt;- are we concerned about constraints like network or storage space on the device?&lt;/div&gt;&lt;div&gt;- expected latency of getting images,&amp;nbsp;&lt;/div&gt;&lt;div&gt;- how often should it be updated?&lt;/div&gt;&lt;div&gt;- does it include only people that you follow?&lt;/div&gt;&lt;div&gt;&lt;br&gt;&lt;/div&gt;" style="rounded=0;whiteSpace=wrap;html=1;" vertex="1" parent="1">
          <mxGeometry x="40" y="40" width="330" height="370" as="geometry" />
        </mxCell>
        <mxCell id="GIXLO-u4NTBJi5lBHRE4-2" value="Scale&lt;div&gt;&lt;br&gt;&lt;div&gt;10 million users per month&lt;/div&gt;&lt;div&gt;2 photos per month&lt;/div&gt;&lt;div&gt;5 MB per phopto&lt;/div&gt;&lt;div&gt;&lt;br&gt;&lt;/div&gt;&lt;div&gt;10^7 * 2 * 5 = 10^8 (100,000,000MB = 100TB)&lt;/div&gt;&lt;div&gt;&lt;br&gt;&lt;/div&gt;&lt;/div&gt;" style="rounded=0;whiteSpace=wrap;html=1;" vertex="1" parent="1">
          <mxGeometry x="40" y="440" width="330" height="360" as="geometry" />
        </mxCell>
        <mxCell id="GIXLO-u4NTBJi5lBHRE4-3" value="" style="shape=table;startSize=0;container=1;collapsible=0;childLayout=tableLayout;" vertex="1" parent="1">
          <mxGeometry x="40" y="960" width="230" height="130" as="geometry" />
        </mxCell>
        <mxCell id="GIXLO-u4NTBJi5lBHRE4-4" value="" style="shape=tableRow;horizontal=0;startSize=0;swimlaneHead=0;swimlaneBody=0;strokeColor=inherit;top=0;left=0;bottom=0;right=0;collapsible=0;dropTarget=0;fillColor=none;points=[[0,0.5],[1,0.5]];portConstraint=eastwest;" vertex="1" parent="GIXLO-u4NTBJi5lBHRE4-3">
          <mxGeometry width="230" height="30" as="geometry" />
        </mxCell>
        <mxCell id="GIXLO-u4NTBJi5lBHRE4-5" value="&lt;b&gt;id&lt;/b&gt;" style="shape=partialRectangle;html=1;whiteSpace=wrap;connectable=0;strokeColor=inherit;overflow=hidden;fillColor=none;top=0;left=0;bottom=0;right=0;pointerEvents=1;" vertex="1" parent="GIXLO-u4NTBJi5lBHRE4-4">
          <mxGeometry width="70" height="30" as="geometry">
            <mxRectangle width="70" height="30" as="alternateBounds" />
          </mxGeometry>
        </mxCell>
        <mxCell id="GIXLO-u4NTBJi5lBHRE4-6" value="&lt;b&gt;primary_key, int, serial&lt;/b&gt;" style="shape=partialRectangle;html=1;whiteSpace=wrap;connectable=0;strokeColor=inherit;overflow=hidden;fillColor=none;top=0;left=0;bottom=0;right=0;pointerEvents=1;" vertex="1" parent="GIXLO-u4NTBJi5lBHRE4-4">
          <mxGeometry x="70" width="160" height="30" as="geometry">
            <mxRectangle width="160" height="30" as="alternateBounds" />
          </mxGeometry>
        </mxCell>
        <mxCell id="GIXLO-u4NTBJi5lBHRE4-17" style="shape=tableRow;horizontal=0;startSize=0;swimlaneHead=0;swimlaneBody=0;strokeColor=inherit;top=0;left=0;bottom=0;right=0;collapsible=0;dropTarget=0;fillColor=none;points=[[0,0.5],[1,0.5]];portConstraint=eastwest;" vertex="1" parent="GIXLO-u4NTBJi5lBHRE4-3">
          <mxGeometry y="30" width="230" height="30" as="geometry" />
        </mxCell>
        <mxCell id="GIXLO-u4NTBJi5lBHRE4-18" value="name" style="shape=partialRectangle;html=1;whiteSpace=wrap;connectable=0;strokeColor=inherit;overflow=hidden;fillColor=none;top=0;left=0;bottom=0;right=0;pointerEvents=1;" vertex="1" parent="GIXLO-u4NTBJi5lBHRE4-17">
          <mxGeometry width="70" height="30" as="geometry">
            <mxRectangle width="70" height="30" as="alternateBounds" />
          </mxGeometry>
        </mxCell>
        <mxCell id="GIXLO-u4NTBJi5lBHRE4-19" value="string" style="shape=partialRectangle;html=1;whiteSpace=wrap;connectable=0;strokeColor=inherit;overflow=hidden;fillColor=none;top=0;left=0;bottom=0;right=0;pointerEvents=1;" vertex="1" parent="GIXLO-u4NTBJi5lBHRE4-17">
          <mxGeometry x="70" width="160" height="30" as="geometry">
            <mxRectangle width="160" height="30" as="alternateBounds" />
          </mxGeometry>
        </mxCell>
        <mxCell id="GIXLO-u4NTBJi5lBHRE4-14" style="shape=tableRow;horizontal=0;startSize=0;swimlaneHead=0;swimlaneBody=0;strokeColor=inherit;top=0;left=0;bottom=0;right=0;collapsible=0;dropTarget=0;fillColor=none;points=[[0,0.5],[1,0.5]];portConstraint=eastwest;" vertex="1" parent="GIXLO-u4NTBJi5lBHRE4-3">
          <mxGeometry y="60" width="230" height="30" as="geometry" />
        </mxCell>
        <mxCell id="GIXLO-u4NTBJi5lBHRE4-15" value="email" style="shape=partialRectangle;html=1;whiteSpace=wrap;connectable=0;strokeColor=inherit;overflow=hidden;fillColor=none;top=0;left=0;bottom=0;right=0;pointerEvents=1;" vertex="1" parent="GIXLO-u4NTBJi5lBHRE4-14">
          <mxGeometry width="70" height="30" as="geometry">
            <mxRectangle width="70" height="30" as="alternateBounds" />
          </mxGeometry>
        </mxCell>
        <mxCell id="GIXLO-u4NTBJi5lBHRE4-16" value="&lt;span style=&quot;caret-color: rgb(0, 0, 0); color: rgb(0, 0, 0); font-family: Helvetica; font-size: 12px; font-style: normal; font-variant-caps: normal; font-weight: 400; letter-spacing: normal; orphans: auto; text-align: center; text-indent: 0px; text-transform: none; white-space: normal; widows: auto; word-spacing: 0px; -webkit-text-stroke-width: 0px; background-color: rgb(251, 251, 251); text-decoration: none; display: inline !important; float: none;&quot;&gt;string&lt;/span&gt;" style="shape=partialRectangle;html=1;whiteSpace=wrap;connectable=0;strokeColor=inherit;overflow=hidden;fillColor=none;top=0;left=0;bottom=0;right=0;pointerEvents=1;" vertex="1" parent="GIXLO-u4NTBJi5lBHRE4-14">
          <mxGeometry x="70" width="160" height="30" as="geometry">
            <mxRectangle width="160" height="30" as="alternateBounds" />
          </mxGeometry>
        </mxCell>
        <mxCell id="GIXLO-u4NTBJi5lBHRE4-7" value="" style="shape=tableRow;horizontal=0;startSize=0;swimlaneHead=0;swimlaneBody=0;strokeColor=inherit;top=0;left=0;bottom=0;right=0;collapsible=0;dropTarget=0;fillColor=none;points=[[0,0.5],[1,0.5]];portConstraint=eastwest;" vertex="1" parent="GIXLO-u4NTBJi5lBHRE4-3">
          <mxGeometry y="90" width="230" height="40" as="geometry" />
        </mxCell>
        <mxCell id="GIXLO-u4NTBJi5lBHRE4-8" value="pwd" style="shape=partialRectangle;html=1;whiteSpace=wrap;connectable=0;strokeColor=inherit;overflow=hidden;fillColor=none;top=0;left=0;bottom=0;right=0;pointerEvents=1;" vertex="1" parent="GIXLO-u4NTBJi5lBHRE4-7">
          <mxGeometry width="70" height="40" as="geometry">
            <mxRectangle width="70" height="40" as="alternateBounds" />
          </mxGeometry>
        </mxCell>
        <mxCell id="GIXLO-u4NTBJi5lBHRE4-9" value="&lt;span style=&quot;caret-color: rgb(0, 0, 0); color: rgb(0, 0, 0); font-family: Helvetica; font-size: 12px; font-style: normal; font-variant-caps: normal; font-weight: 400; letter-spacing: normal; orphans: auto; text-align: center; text-indent: 0px; text-transform: none; white-space: normal; widows: auto; word-spacing: 0px; -webkit-text-stroke-width: 0px; background-color: rgb(251, 251, 251); text-decoration: none; display: inline !important; float: none;&quot;&gt;string&lt;/span&gt;" style="shape=partialRectangle;html=1;whiteSpace=wrap;connectable=0;strokeColor=inherit;overflow=hidden;fillColor=none;top=0;left=0;bottom=0;right=0;pointerEvents=1;" vertex="1" parent="GIXLO-u4NTBJi5lBHRE4-7">
          <mxGeometry x="70" width="160" height="40" as="geometry">
            <mxRectangle width="160" height="40" as="alternateBounds" />
          </mxGeometry>
        </mxCell>
        <mxCell id="GIXLO-u4NTBJi5lBHRE4-11" value="Database - relationalDB&amp;nbsp;" style="text;html=1;align=center;verticalAlign=middle;whiteSpace=wrap;rounded=0;" vertex="1" parent="1">
          <mxGeometry x="40" y="840" width="150" height="30" as="geometry" />
        </mxCell>
        <mxCell id="GIXLO-u4NTBJi5lBHRE4-12" value="this problem is inherent relationship bt datas we&#39;re trying to model, so we choose relational DB such as mySQL or PostgreSQL..&lt;div&gt;There are other options, so we could also look at noSQL DB.&lt;/div&gt;&lt;div&gt;Thinking about whether datas are inherently relationa and whether you would benefit from using relational queries.. in this case relationalDB makes perfect sense.&lt;/div&gt;" style="text;html=1;align=center;verticalAlign=middle;whiteSpace=wrap;rounded=0;" vertex="1" parent="1">
          <mxGeometry x="200" y="850" width="400" height="50" as="geometry" />
        </mxCell>
        <mxCell id="GIXLO-u4NTBJi5lBHRE4-13" value="Users" style="text;html=1;align=center;verticalAlign=middle;whiteSpace=wrap;rounded=0;" vertex="1" parent="1">
          <mxGeometry x="40" y="930" width="60" height="30" as="geometry" />
        </mxCell>
        <mxCell id="GIXLO-u4NTBJi5lBHRE4-20" value="" style="shape=table;startSize=0;container=1;collapsible=0;childLayout=tableLayout;" vertex="1" parent="1">
          <mxGeometry x="299" y="960" width="230" height="170" as="geometry" />
        </mxCell>
        <mxCell id="GIXLO-u4NTBJi5lBHRE4-21" value="" style="shape=tableRow;horizontal=0;startSize=0;swimlaneHead=0;swimlaneBody=0;strokeColor=inherit;top=0;left=0;bottom=0;right=0;collapsible=0;dropTarget=0;fillColor=none;points=[[0,0.5],[1,0.5]];portConstraint=eastwest;" vertex="1" parent="GIXLO-u4NTBJi5lBHRE4-20">
          <mxGeometry width="230" height="30" as="geometry" />
        </mxCell>
        <mxCell id="GIXLO-u4NTBJi5lBHRE4-22" value="&lt;b&gt;id&lt;/b&gt;" style="shape=partialRectangle;html=1;whiteSpace=wrap;connectable=0;strokeColor=inherit;overflow=hidden;fillColor=none;top=0;left=0;bottom=0;right=0;pointerEvents=1;" vertex="1" parent="GIXLO-u4NTBJi5lBHRE4-21">
          <mxGeometry width="70" height="30" as="geometry">
            <mxRectangle width="70" height="30" as="alternateBounds" />
          </mxGeometry>
        </mxCell>
        <mxCell id="GIXLO-u4NTBJi5lBHRE4-23" value="&lt;b&gt;primary_key, int, serial&lt;/b&gt;" style="shape=partialRectangle;html=1;whiteSpace=wrap;connectable=0;strokeColor=inherit;overflow=hidden;fillColor=none;top=0;left=0;bottom=0;right=0;pointerEvents=1;" vertex="1" parent="GIXLO-u4NTBJi5lBHRE4-21">
          <mxGeometry x="70" width="160" height="30" as="geometry">
            <mxRectangle width="160" height="30" as="alternateBounds" />
          </mxGeometry>
        </mxCell>
        <mxCell id="GIXLO-u4NTBJi5lBHRE4-24" style="shape=tableRow;horizontal=0;startSize=0;swimlaneHead=0;swimlaneBody=0;strokeColor=inherit;top=0;left=0;bottom=0;right=0;collapsible=0;dropTarget=0;fillColor=none;points=[[0,0.5],[1,0.5]];portConstraint=eastwest;" vertex="1" parent="GIXLO-u4NTBJi5lBHRE4-20">
          <mxGeometry y="30" width="230" height="30" as="geometry" />
        </mxCell>
        <mxCell id="GIXLO-u4NTBJi5lBHRE4-25" value="user_id" style="shape=partialRectangle;html=1;whiteSpace=wrap;connectable=0;strokeColor=inherit;overflow=hidden;fillColor=none;top=0;left=0;bottom=0;right=0;pointerEvents=1;" vertex="1" parent="GIXLO-u4NTBJi5lBHRE4-24">
          <mxGeometry width="70" height="30" as="geometry">
            <mxRectangle width="70" height="30" as="alternateBounds" />
          </mxGeometry>
        </mxCell>
        <mxCell id="GIXLO-u4NTBJi5lBHRE4-26" value="foreign key referencing user.id" style="shape=partialRectangle;html=1;whiteSpace=wrap;connectable=0;strokeColor=inherit;overflow=hidden;fillColor=none;top=0;left=0;bottom=0;right=0;pointerEvents=1;" vertex="1" parent="GIXLO-u4NTBJi5lBHRE4-24">
          <mxGeometry x="70" width="160" height="30" as="geometry">
            <mxRectangle width="160" height="30" as="alternateBounds" />
          </mxGeometry>
        </mxCell>
        <mxCell id="GIXLO-u4NTBJi5lBHRE4-27" style="shape=tableRow;horizontal=0;startSize=0;swimlaneHead=0;swimlaneBody=0;strokeColor=inherit;top=0;left=0;bottom=0;right=0;collapsible=0;dropTarget=0;fillColor=none;points=[[0,0.5],[1,0.5]];portConstraint=eastwest;" vertex="1" parent="GIXLO-u4NTBJi5lBHRE4-20">
          <mxGeometry y="60" width="230" height="30" as="geometry" />
        </mxCell>
        <mxCell id="GIXLO-u4NTBJi5lBHRE4-28" value="caption" style="shape=partialRectangle;html=1;whiteSpace=wrap;connectable=0;strokeColor=inherit;overflow=hidden;fillColor=none;top=0;left=0;bottom=0;right=0;pointerEvents=1;" vertex="1" parent="GIXLO-u4NTBJi5lBHRE4-27">
          <mxGeometry width="70" height="30" as="geometry">
            <mxRectangle width="70" height="30" as="alternateBounds" />
          </mxGeometry>
        </mxCell>
        <mxCell id="GIXLO-u4NTBJi5lBHRE4-29" value="&lt;span style=&quot;caret-color: rgb(0, 0, 0); color: rgb(0, 0, 0); font-family: Helvetica; font-size: 12px; font-style: normal; font-variant-caps: normal; font-weight: 400; letter-spacing: normal; orphans: auto; text-align: center; text-indent: 0px; text-transform: none; white-space: normal; widows: auto; word-spacing: 0px; -webkit-text-stroke-width: 0px; background-color: rgb(251, 251, 251); text-decoration: none; display: inline !important; float: none;&quot;&gt;string&lt;/span&gt;" style="shape=partialRectangle;html=1;whiteSpace=wrap;connectable=0;strokeColor=inherit;overflow=hidden;fillColor=none;top=0;left=0;bottom=0;right=0;pointerEvents=1;" vertex="1" parent="GIXLO-u4NTBJi5lBHRE4-27">
          <mxGeometry x="70" width="160" height="30" as="geometry">
            <mxRectangle width="160" height="30" as="alternateBounds" />
          </mxGeometry>
        </mxCell>
        <mxCell id="GIXLO-u4NTBJi5lBHRE4-30" value="" style="shape=tableRow;horizontal=0;startSize=0;swimlaneHead=0;swimlaneBody=0;strokeColor=inherit;top=0;left=0;bottom=0;right=0;collapsible=0;dropTarget=0;fillColor=none;points=[[0,0.5],[1,0.5]];portConstraint=eastwest;" vertex="1" parent="GIXLO-u4NTBJi5lBHRE4-20">
          <mxGeometry y="90" width="230" height="40" as="geometry" />
        </mxCell>
        <mxCell id="GIXLO-u4NTBJi5lBHRE4-31" value="location" style="shape=partialRectangle;html=1;whiteSpace=wrap;connectable=0;strokeColor=inherit;overflow=hidden;fillColor=none;top=0;left=0;bottom=0;right=0;pointerEvents=1;" vertex="1" parent="GIXLO-u4NTBJi5lBHRE4-30">
          <mxGeometry width="70" height="40" as="geometry">
            <mxRectangle width="70" height="40" as="alternateBounds" />
          </mxGeometry>
        </mxCell>
        <mxCell id="GIXLO-u4NTBJi5lBHRE4-32" value="&lt;span style=&quot;caret-color: rgb(0, 0, 0); color: rgb(0, 0, 0); font-family: Helvetica; font-size: 12px; font-style: normal; font-variant-caps: normal; font-weight: 400; letter-spacing: normal; orphans: auto; text-align: center; text-indent: 0px; text-transform: none; white-space: normal; widows: auto; word-spacing: 0px; -webkit-text-stroke-width: 0px; background-color: rgb(251, 251, 251); text-decoration: none; display: inline !important; float: none;&quot;&gt;string&lt;/span&gt;" style="shape=partialRectangle;html=1;whiteSpace=wrap;connectable=0;strokeColor=inherit;overflow=hidden;fillColor=none;top=0;left=0;bottom=0;right=0;pointerEvents=1;" vertex="1" parent="GIXLO-u4NTBJi5lBHRE4-30">
          <mxGeometry x="70" width="160" height="40" as="geometry">
            <mxRectangle width="160" height="40" as="alternateBounds" />
          </mxGeometry>
        </mxCell>
        <mxCell id="GIXLO-u4NTBJi5lBHRE4-51" style="shape=tableRow;horizontal=0;startSize=0;swimlaneHead=0;swimlaneBody=0;strokeColor=inherit;top=0;left=0;bottom=0;right=0;collapsible=0;dropTarget=0;fillColor=none;points=[[0,0.5],[1,0.5]];portConstraint=eastwest;" vertex="1" parent="GIXLO-u4NTBJi5lBHRE4-20">
          <mxGeometry y="130" width="230" height="40" as="geometry" />
        </mxCell>
        <mxCell id="GIXLO-u4NTBJi5lBHRE4-52" value="path" style="shape=partialRectangle;html=1;whiteSpace=wrap;connectable=0;strokeColor=inherit;overflow=hidden;fillColor=none;top=0;left=0;bottom=0;right=0;pointerEvents=1;" vertex="1" parent="GIXLO-u4NTBJi5lBHRE4-51">
          <mxGeometry width="70" height="40" as="geometry">
            <mxRectangle width="70" height="40" as="alternateBounds" />
          </mxGeometry>
        </mxCell>
        <mxCell id="GIXLO-u4NTBJi5lBHRE4-53" value="string" style="shape=partialRectangle;html=1;whiteSpace=wrap;connectable=0;strokeColor=inherit;overflow=hidden;fillColor=none;top=0;left=0;bottom=0;right=0;pointerEvents=1;" vertex="1" parent="GIXLO-u4NTBJi5lBHRE4-51">
          <mxGeometry x="70" width="160" height="40" as="geometry">
            <mxRectangle width="160" height="40" as="alternateBounds" />
          </mxGeometry>
        </mxCell>
        <mxCell id="GIXLO-u4NTBJi5lBHRE4-33" value="" style="shape=table;startSize=0;container=1;collapsible=0;childLayout=tableLayout;" vertex="1" parent="1">
          <mxGeometry x="560" y="960" width="230" height="60" as="geometry" />
        </mxCell>
        <mxCell id="GIXLO-u4NTBJi5lBHRE4-34" value="" style="shape=tableRow;horizontal=0;startSize=0;swimlaneHead=0;swimlaneBody=0;strokeColor=inherit;top=0;left=0;bottom=0;right=0;collapsible=0;dropTarget=0;fillColor=none;points=[[0,0.5],[1,0.5]];portConstraint=eastwest;" vertex="1" parent="GIXLO-u4NTBJi5lBHRE4-33">
          <mxGeometry width="230" height="30" as="geometry" />
        </mxCell>
        <mxCell id="GIXLO-u4NTBJi5lBHRE4-35" value="&lt;b&gt;from&lt;/b&gt;" style="shape=partialRectangle;html=1;whiteSpace=wrap;connectable=0;strokeColor=inherit;overflow=hidden;fillColor=none;top=0;left=0;bottom=0;right=0;pointerEvents=1;" vertex="1" parent="GIXLO-u4NTBJi5lBHRE4-34">
          <mxGeometry width="70" height="30" as="geometry">
            <mxRectangle width="70" height="30" as="alternateBounds" />
          </mxGeometry>
        </mxCell>
        <mxCell id="GIXLO-u4NTBJi5lBHRE4-36" value="&lt;b&gt;foreign key referencing user.id&lt;/b&gt;" style="shape=partialRectangle;html=1;whiteSpace=wrap;connectable=0;strokeColor=inherit;overflow=hidden;fillColor=none;top=0;left=0;bottom=0;right=0;pointerEvents=1;" vertex="1" parent="GIXLO-u4NTBJi5lBHRE4-34">
          <mxGeometry x="70" width="160" height="30" as="geometry">
            <mxRectangle width="160" height="30" as="alternateBounds" />
          </mxGeometry>
        </mxCell>
        <mxCell id="GIXLO-u4NTBJi5lBHRE4-37" style="shape=tableRow;horizontal=0;startSize=0;swimlaneHead=0;swimlaneBody=0;strokeColor=inherit;top=0;left=0;bottom=0;right=0;collapsible=0;dropTarget=0;fillColor=none;points=[[0,0.5],[1,0.5]];portConstraint=eastwest;" vertex="1" parent="GIXLO-u4NTBJi5lBHRE4-33">
          <mxGeometry y="30" width="230" height="30" as="geometry" />
        </mxCell>
        <mxCell id="GIXLO-u4NTBJi5lBHRE4-38" value="to" style="shape=partialRectangle;html=1;whiteSpace=wrap;connectable=0;strokeColor=inherit;overflow=hidden;fillColor=none;top=0;left=0;bottom=0;right=0;pointerEvents=1;" vertex="1" parent="GIXLO-u4NTBJi5lBHRE4-37">
          <mxGeometry width="70" height="30" as="geometry">
            <mxRectangle width="70" height="30" as="alternateBounds" />
          </mxGeometry>
        </mxCell>
        <mxCell id="GIXLO-u4NTBJi5lBHRE4-39" value="&lt;b&gt;foreign key referencing user.id&lt;/b&gt;" style="shape=partialRectangle;html=1;whiteSpace=wrap;connectable=0;strokeColor=inherit;overflow=hidden;fillColor=none;top=0;left=0;bottom=0;right=0;pointerEvents=1;" vertex="1" parent="GIXLO-u4NTBJi5lBHRE4-37">
          <mxGeometry x="70" width="160" height="30" as="geometry">
            <mxRectangle width="160" height="30" as="alternateBounds" />
          </mxGeometry>
        </mxCell>
        <mxCell id="GIXLO-u4NTBJi5lBHRE4-46" value="Photos" style="text;html=1;align=center;verticalAlign=middle;resizable=0;points=[];autosize=1;strokeColor=none;fillColor=none;" vertex="1" parent="1">
          <mxGeometry x="299" y="930" width="60" height="30" as="geometry" />
        </mxCell>
        <mxCell id="GIXLO-u4NTBJi5lBHRE4-47" value="Followers" style="text;html=1;align=center;verticalAlign=middle;whiteSpace=wrap;rounded=0;" vertex="1" parent="1">
          <mxGeometry x="560" y="930" width="60" height="30" as="geometry" />
        </mxCell>
        <mxCell id="GIXLO-u4NTBJi5lBHRE4-54" value="Architecture Design" style="text;html=1;align=center;verticalAlign=middle;whiteSpace=wrap;rounded=0;" vertex="1" parent="1">
          <mxGeometry x="40" y="1139" width="130" height="30" as="geometry" />
        </mxCell>
        <mxCell id="GIXLO-u4NTBJi5lBHRE4-57" value="" style="edgeStyle=orthogonalEdgeStyle;rounded=0;orthogonalLoop=1;jettySize=auto;html=1;" edge="1" parent="1" source="GIXLO-u4NTBJi5lBHRE4-55" target="GIXLO-u4NTBJi5lBHRE4-56">
          <mxGeometry relative="1" as="geometry" />
        </mxCell>
        <mxCell id="GIXLO-u4NTBJi5lBHRE4-58" value="File path" style="edgeLabel;html=1;align=center;verticalAlign=middle;resizable=0;points=[];" vertex="1" connectable="0" parent="GIXLO-u4NTBJi5lBHRE4-57">
          <mxGeometry x="-0.0244" relative="1" as="geometry">
            <mxPoint as="offset" />
          </mxGeometry>
        </mxCell>
        <mxCell id="GIXLO-u4NTBJi5lBHRE4-65" value="" style="edgeStyle=orthogonalEdgeStyle;rounded=0;orthogonalLoop=1;jettySize=auto;html=1;" edge="1" parent="1" source="GIXLO-u4NTBJi5lBHRE4-55" target="GIXLO-u4NTBJi5lBHRE4-62">
          <mxGeometry relative="1" as="geometry" />
        </mxCell>
        <mxCell id="GIXLO-u4NTBJi5lBHRE4-55" value="Metadata DB" style="shape=cylinder3;whiteSpace=wrap;html=1;boundedLbl=1;backgroundOutline=1;size=15;" vertex="1" parent="1">
          <mxGeometry x="759" y="1340" width="60" height="80" as="geometry" />
        </mxCell>
        <mxCell id="GIXLO-u4NTBJi5lBHRE4-56" value="Object Storage&lt;div&gt;(Amazon S3)&lt;/div&gt;" style="ellipse;whiteSpace=wrap;html=1;" vertex="1" parent="1">
          <mxGeometry x="729" y="1530" width="120" height="80" as="geometry" />
        </mxCell>
        <mxCell id="GIXLO-u4NTBJi5lBHRE4-59" value="&lt;i&gt;image path we&#39;re storing in the photo table and where those are going to be stored.&lt;/i&gt;&lt;div&gt;&lt;i&gt;&lt;br&gt;&lt;/i&gt;&lt;/div&gt;&lt;div&gt;&lt;i&gt;distributed object mechanism store and replicate data in reliable&lt;/i&gt;&lt;/div&gt;&lt;div&gt;&lt;i&gt;way.&lt;/i&gt;&lt;/div&gt;&lt;div&gt;&lt;i&gt;We store the reference paths to files that are stored in DB. In that way, we can have a separate reliable place to upload images accessible and fast.&amp;nbsp;&lt;/i&gt;&lt;/div&gt;" style="text;html=1;align=center;verticalAlign=middle;whiteSpace=wrap;rounded=0;" vertex="1" parent="1">
          <mxGeometry x="890" y="1431" width="210" height="305" as="geometry" />
        </mxCell>
        <mxCell id="GIXLO-u4NTBJi5lBHRE4-63" value="" style="edgeStyle=orthogonalEdgeStyle;rounded=0;orthogonalLoop=1;jettySize=auto;html=1;" edge="1" parent="1" source="GIXLO-u4NTBJi5lBHRE4-60" target="GIXLO-u4NTBJi5lBHRE4-62">
          <mxGeometry relative="1" as="geometry" />
        </mxCell>
        <mxCell id="GIXLO-u4NTBJi5lBHRE4-66" value="read" style="edgeLabel;html=1;align=center;verticalAlign=middle;resizable=0;points=[];" vertex="1" connectable="0" parent="GIXLO-u4NTBJi5lBHRE4-63">
          <mxGeometry relative="1" as="geometry">
            <mxPoint as="offset" />
          </mxGeometry>
        </mxCell>
        <mxCell id="GIXLO-u4NTBJi5lBHRE4-60" value="App Server(read)" style="rounded=0;whiteSpace=wrap;html=1;" vertex="1" parent="1">
          <mxGeometry x="379" y="1350" width="120" height="60" as="geometry" />
        </mxCell>
        <mxCell id="GIXLO-u4NTBJi5lBHRE4-64" value="" style="edgeStyle=orthogonalEdgeStyle;rounded=0;orthogonalLoop=1;jettySize=auto;html=1;" edge="1" parent="1" source="GIXLO-u4NTBJi5lBHRE4-61">
          <mxGeometry relative="1" as="geometry">
            <mxPoint x="759" y="1400" as="targetPoint" />
            <Array as="points">
              <mxPoint x="719" y="1490" />
              <mxPoint x="719" y="1400" />
              <mxPoint x="759" y="1400" />
            </Array>
          </mxGeometry>
        </mxCell>
        <mxCell id="GIXLO-u4NTBJi5lBHRE4-68" style="edgeStyle=orthogonalEdgeStyle;rounded=0;orthogonalLoop=1;jettySize=auto;html=1;" edge="1" parent="1" source="GIXLO-u4NTBJi5lBHRE4-61" target="GIXLO-u4NTBJi5lBHRE4-56">
          <mxGeometry relative="1" as="geometry">
            <Array as="points">
              <mxPoint x="719" y="1491" />
              <mxPoint x="719" y="1580" />
            </Array>
          </mxGeometry>
        </mxCell>
        <mxCell id="GIXLO-u4NTBJi5lBHRE4-72" value="upload" style="edgeLabel;html=1;align=center;verticalAlign=middle;resizable=0;points=[];" vertex="1" connectable="0" parent="GIXLO-u4NTBJi5lBHRE4-68">
          <mxGeometry x="-0.4516" y="-1" relative="1" as="geometry">
            <mxPoint as="offset" />
          </mxGeometry>
        </mxCell>
        <mxCell id="GIXLO-u4NTBJi5lBHRE4-61" value="App Server(write)" style="rounded=0;whiteSpace=wrap;html=1;" vertex="1" parent="1">
          <mxGeometry x="379" y="1460" width="120" height="60" as="geometry" />
        </mxCell>
        <mxCell id="GIXLO-u4NTBJi5lBHRE4-62" value="Cache (Redis)" style="ellipse;whiteSpace=wrap;html=1;" vertex="1" parent="1">
          <mxGeometry x="579" y="1340" width="120" height="80" as="geometry" />
        </mxCell>
        <mxCell id="GIXLO-u4NTBJi5lBHRE4-74" value="" style="edgeStyle=orthogonalEdgeStyle;rounded=0;orthogonalLoop=1;jettySize=auto;html=1;" edge="1" parent="1" source="GIXLO-u4NTBJi5lBHRE4-69" target="GIXLO-u4NTBJi5lBHRE4-61">
          <mxGeometry relative="1" as="geometry" />
        </mxCell>
        <mxCell id="GIXLO-u4NTBJi5lBHRE4-75" style="edgeStyle=orthogonalEdgeStyle;rounded=0;orthogonalLoop=1;jettySize=auto;html=1;entryX=0;entryY=0.5;entryDx=0;entryDy=0;" edge="1" parent="1" source="GIXLO-u4NTBJi5lBHRE4-69" target="GIXLO-u4NTBJi5lBHRE4-60">
          <mxGeometry relative="1" as="geometry" />
        </mxCell>
        <mxCell id="GIXLO-u4NTBJi5lBHRE4-69" value="Load Balancer" style="rhombus;whiteSpace=wrap;html=1;" vertex="1" parent="1">
          <mxGeometry x="239" y="1381" width="81" height="110" as="geometry" />
        </mxCell>
        <mxCell id="GIXLO-u4NTBJi5lBHRE4-70" value="horizontal scaling : many server" style="text;html=1;align=center;verticalAlign=middle;whiteSpace=wrap;rounded=0;" vertex="1" parent="1">
          <mxGeometry x="382" y="1511" width="104" height="71" as="geometry" />
        </mxCell>
        <mxCell id="GIXLO-u4NTBJi5lBHRE4-71" value="&lt;p style=&quot;margin: 0px; font-stretch: normal; line-height: normal; font-size-adjust: none; font-kerning: auto; font-variant-alternates: normal; font-variant-ligatures: normal; font-variant-numeric: normal; font-variant-east-asian: normal; font-variant-position: normal; font-feature-settings: normal; font-optical-sizing: auto; font-variation-settings: normal;&quot;&gt;&lt;i&gt;&lt;b style=&quot;font-family: &amp;quot;Helvetica Neue&amp;quot;; font-size: 13px; font-variant-caps: normal;&quot;&gt;Load&amp;nbsp;&lt;/b&gt;&lt;font size=&quot;2&quot; face=&quot;Helvetica Neue&quot;&gt;&lt;b&gt;balancer:&lt;/b&gt;&lt;/font&gt;&lt;/i&gt;&lt;/p&gt;&lt;p style=&quot;margin: 0px; font-variant-caps: normal; font-stretch: normal; font-size: 13px; line-height: normal; font-family: &amp;quot;Helvetica Neue&amp;quot;; font-size-adjust: none; font-kerning: auto; font-variant-alternates: normal; font-variant-ligatures: normal; font-variant-numeric: normal; font-variant-east-asian: normal; font-variant-position: normal; font-feature-settings: normal; font-optical-sizing: auto; font-variation-settings: normal;&quot;&gt;&lt;i&gt;&lt;b&gt;distributing traffic across multiple servers&lt;/b&gt; to ensure no single server becomes overwhelmed.&lt;/i&gt;&lt;/p&gt;" style="text;html=1;align=center;verticalAlign=middle;whiteSpace=wrap;rounded=0;" vertex="1" parent="1">
          <mxGeometry x="250" y="1671" width="90" height="180" as="geometry" />
        </mxCell>
        <mxCell id="GIXLO-u4NTBJi5lBHRE4-77" value="" style="edgeStyle=orthogonalEdgeStyle;rounded=0;orthogonalLoop=1;jettySize=auto;html=1;" edge="1" parent="1" source="GIXLO-u4NTBJi5lBHRE4-76" target="GIXLO-u4NTBJi5lBHRE4-69">
          <mxGeometry relative="1" as="geometry" />
        </mxCell>
        <mxCell id="GIXLO-u4NTBJi5lBHRE4-78" style="edgeStyle=orthogonalEdgeStyle;rounded=0;orthogonalLoop=1;jettySize=auto;html=1;entryX=0.5;entryY=1;entryDx=0;entryDy=0;" edge="1" parent="1" source="GIXLO-u4NTBJi5lBHRE4-76" target="GIXLO-u4NTBJi5lBHRE4-56">
          <mxGeometry relative="1" as="geometry">
            <Array as="points">
              <mxPoint x="135" y="1631" />
              <mxPoint x="470" y="1631" />
              <mxPoint x="470" y="1630" />
              <mxPoint x="789" y="1630" />
            </Array>
          </mxGeometry>
        </mxCell>
        <mxCell id="GIXLO-u4NTBJi5lBHRE4-76" value="Application UI client&lt;div&gt;(Web or Mobile app)&lt;/div&gt;" style="ellipse;shape=cloud;whiteSpace=wrap;html=1;" vertex="1" parent="1">
          <mxGeometry x="60" y="1376" width="150" height="120" as="geometry" />
        </mxCell>
        <mxCell id="GIXLO-u4NTBJi5lBHRE4-79" value="&lt;p style=&quot;margin: 0px; font-variant-caps: normal; font-stretch: normal; font-size: 13px; line-height: normal; font-family: &amp;quot;Helvetica Neue&amp;quot;; font-size-adjust: none; font-kerning: auto; font-variant-alternates: normal; font-variant-ligatures: normal; font-variant-numeric: normal; font-variant-east-asian: normal; font-variant-position: normal; font-feature-settings: normal; font-optical-sizing: auto; font-variation-settings: normal;&quot;&gt;&lt;b&gt;&lt;i&gt;Cache :&amp;nbsp;&lt;/i&gt;&lt;/b&gt;&lt;/p&gt;&lt;p style=&quot;margin: 0px; font-variant-caps: normal; font-stretch: normal; font-size: 13px; line-height: normal; font-family: &amp;quot;Helvetica Neue&amp;quot;; font-size-adjust: none; font-kerning: auto; font-variant-alternates: normal; font-variant-ligatures: normal; font-variant-numeric: normal; font-variant-east-asian: normal; font-variant-position: normal; font-feature-settings: normal; font-optical-sizing: auto; font-variation-settings: normal;&quot;&gt;&lt;i&gt;Store &lt;b&gt;frequently accessed data&lt;/b&gt; in-memory (like RAM) to &lt;b&gt;reduce the load&lt;/b&gt; on the server or database. Implement caching can dramatically improve response times.&lt;/i&gt;&lt;/p&gt;" style="text;html=1;align=center;verticalAlign=middle;whiteSpace=wrap;rounded=0;" vertex="1" parent="1">
          <mxGeometry x="579" y="1681" width="141" height="160" as="geometry" />
        </mxCell>
        <mxCell id="GIXLO-u4NTBJi5lBHRE4-81" value="" style="edgeStyle=orthogonalEdgeStyle;rounded=0;orthogonalLoop=1;jettySize=auto;html=1;" edge="1" parent="1" source="GIXLO-u4NTBJi5lBHRE4-80" target="GIXLO-u4NTBJi5lBHRE4-62">
          <mxGeometry relative="1" as="geometry" />
        </mxCell>
        <mxCell id="GIXLO-u4NTBJi5lBHRE4-80" value="Feed Generation Service" style="rounded=0;whiteSpace=wrap;html=1;" vertex="1" parent="1">
          <mxGeometry x="579" y="1240" width="121" height="60" as="geometry" />
        </mxCell>
        <mxCell id="GIXLO-u4NTBJi5lBHRE4-82" style="edgeStyle=orthogonalEdgeStyle;rounded=0;orthogonalLoop=1;jettySize=auto;html=1;entryX=0.5;entryY=0;entryDx=0;entryDy=0;entryPerimeter=0;" edge="1" parent="1" source="GIXLO-u4NTBJi5lBHRE4-80" target="GIXLO-u4NTBJi5lBHRE4-55">
          <mxGeometry relative="1" as="geometry" />
        </mxCell>
      </root>
    </mxGraphModel>
  </diagram>
</mxfile>
